Coordinates
version=1
nRows=36
nColumns=34
inDegrees=no

Units are S.I. units (second, meters, Newtons, ...)
If the header above contains a line with 'inDegrees', this indicates whether rotational values are in degrees (yes) or radians (no).

endheader
time	pelvis_tilt	pelvis_list	pelvis_rotation	pelvis_tx	pelvis_ty	pelvis_tz	hip_flexion_r	hip_adduction_r	hip_rotation_r	knee_angle_r	ankle_angle_r	subtalar_angle_r	mtp_angle_r	hip_flexion_l	hip_adduction_l	hip_rotation_l	knee_angle_l	ankle_angle_l	subtalar_angle_l	mtp_angle_l	lumbar_extension	lumbar_bending	lumbar_rotation	arm_flex_r	arm_add_r	arm_rot_r	elbow_flex_r	pro_sup_r	arm_flex_l	arm_add_l	arm_rot_l	elbow_flex_l	pro_sup_l
0.92	-0.0071267	0.0413332	-0.0578448	0.929134	0.966284	-0.278975	0.478151	-0.120303	-0.0738956	0.884317	0.0661001	-0.19374	0	0.0154587	0.0955614	-0.0108737	0.152614	0.229556	0.0087468	0	-0.0887699	-0.0438886	-0.11303	-0.166106	-0.0888057	-0.326229	0.54084	2.09	0.0927196	-0.171277	-0.0766381	0.705477	2.09
0.93	-0.00833257	0.0377791	-0.0519039	0.939913	0.966537	-0.279643	0.487804	-0.114419	-0.0873952	0.832161	0.0824115	-0.168391	0	-0.000453549	0.0926403	-0.00177037	0.144466	0.230182	0.00575301	0	-0.0908739	-0.0396461	-0.118565	-0.173169	-0.0884286	-0.332974	0.538536	2.09	0.108517	-0.173996	-0.0651924	0.724103	2.09
0.94	-0.00930037	0.0352895	-0.0458531	0.95075	0.966527	-0.28024	0.49532	-0.1099	-0.101256	0.777606	0.0977597	-0.142157	0	-0.0160143	0.0906642	0.00696524	0.137385	0.231597	0.00305454	0	-0.0930414	-0.0367644	-0.12399	-0.180207	-0.0877514	-0.339816	0.536591	2.09	0.124099	-0.176714	-0.0550167	0.742559	2.09
0.95	-0.0101191	0.0338478	-0.03964	0.961668	0.966237	-0.28078	0.500907	-0.106756	-0.115587	0.72133	0.112312	-0.113995	0	-0.0314284	0.0896462	0.0155641	0.130944	0.233818	0.000346834	0	-0.0951419	-0.0351925	-0.12937	-0.187238	-0.0867651	-0.346891	0.534947	2.09	0.139333	-0.179413	-0.0459097	0.760812	2.09
0.96	-0.0107034	0.0334473	-0.0331183	0.972689	0.965674	-0.281294	0.50457	-0.10542	-0.131507	0.664136	0.127228	-0.080978	0	-0.0471568	0.0896794	0.0253965	0.124587	0.23618	-0.00422546	0	-0.0972609	-0.034863	-0.134775	-0.194349	-0.0854226	-0.354617	0.533773	2.09	0.154166	-0.182093	-0.0374435	0.778856	2.09
0.97	-0.0114155	0.0339491	-0.0265206	0.983808	0.964808	-0.281754	0.506968	-0.104941	-0.147592	0.606559	0.140256	-0.0466078	0	-0.0627843	0.0904911	0.0354871	0.118475	0.239291	-0.00934057	0	-0.0989861	-0.035649	-0.140047	-0.201507	-0.0838597	-0.362331	0.532852	2.09	0.168357	-0.184775	-0.0295916	0.796855	2.09
0.98	-0.0121299	0.0351661	-0.0198408	0.99503	0.96366	-0.282163	0.508106	-0.105268	-0.164399	0.549325	0.152179	-0.00974839	0	-0.0785367	0.0918916	0.0462127	0.112527	0.242977	-0.0154398	0	-0.100485	-0.0373185	-0.145132	-0.20873	-0.0820773	-0.370258	0.532332	2.09	0.181912	-0.187445	-0.0220582	0.814776	2.09
0.99	-0.0126375	0.0370831	-0.0130559	1.00638	0.962248	-0.282555	0.508053	-0.107044	-0.184157	0.493627	0.165261	0.0335063	0	-0.0959852	0.094496	0.0669673	0.104169	0.24075	-0.0381555	0	-0.101982	-0.0397383	-0.149642	-0.216346	-0.0796879	-0.380801	0.533085	2.09	0.195188	-0.189944	-0.0141266	0.832114	2.09
1	-0.0135298	0.0388822	-0.00684341	1.01779	0.960585	-0.282766	0.507324	-0.10623	-0.197771	0.438147	0.172417	0.0654588	0	-0.1111	0.0958322	0.0742306	0.0999462	0.248025	-0.0396017	0	-0.102898	-0.0423564	-0.154245	-0.223075	-0.0781502	-0.386234	0.532286	2.09	0.206962	-0.192616	-0.00777259	0.850019	2.09
1.01	-0.0139787	0.0408602	-0.000643273	1.02932	0.95873	-0.28293	0.505509	-0.106421	-0.215085	0.385549	0.182352	0.103939	0	-0.126981	0.0972971	0.0834398	0.0955887	0.254385	-0.0444533	0	-0.104137	-0.0451413	-0.158305	-0.229856	-0.0761191	-0.394194	0.532501	2.09	0.218419	-0.195077	-0.00110785	0.867105	2.09
1.02	-0.0144648	0.0427451	0.00500635	1.04096	0.95669	-0.282962	0.503156	-0.105104	-0.228199	0.335133	0.190192	0.134858	0	-0.142612	0.0984531	0.0916344	0.0919497	0.261119	-0.0488662	0	-0.105135	-0.0479485	-0.161881	-0.236106	-0.0742575	-0.401384	0.532304	2.09	0.228981	-0.197458	0.00505019	0.88363	2.09
1.03	-0.0146074	0.044453	0.0103098	1.05271	0.95453	-0.282895	0.500132	-0.103224	-0.240175	0.28825	0.198306	0.163065	0	-0.158505	0.0992132	0.0993868	0.0888239	0.267677	-0.0532236	0	-0.106331	-0.0505922	-0.165184	-0.241732	-0.0725207	-0.408428	0.531787	2.09	0.238678	-0.199717	0.0108021	0.899456	2.09
1.04	-0.0144691	0.0459495	0.0152419	1.06457	0.952287	-0.282727	0.49669	-0.10063	-0.249618	0.245561	0.206135	0.186243	0	-0.174444	0.0995093	0.106143	0.0864463	0.274118	-0.0565408	0	-0.107633	-0.0530212	-0.168339	-0.246575	-0.0710329	-0.41488	0.530665	2.09	0.247301	-0.201867	0.0159672	0.914554	2.09
1.05	-0.0140102	0.0472021	0.0198418	1.07656	0.950002	-0.282467	0.492892	-0.0974004	-0.255845	0.207768	0.213475	0.203403	0	-0.190351	0.0992826	0.111505	0.085018	0.280496	-0.0579727	0	-0.109056	-0.0551617	-0.171476	-0.250567	-0.0698647	-0.420578	0.528874	2.09	0.254656	-0.203897	0.0204142	0.928907	2.09
1.06	-0.0133288	0.0482409	0.0241247	1.08869	0.947702	-0.282125	0.488932	-0.0937331	-0.258464	0.175586	0.220253	0.214196	0	-0.205957	0.0985717	0.115163	0.0848431	0.286825	-0.0569272	0	-0.110426	-0.0570102	-0.174649	-0.253744	-0.0690905	-0.42531	0.526411	2.09	0.260521	-0.205766	0.0240327	0.942457	2.09
1.07	-0.0120072	0.0489262	0.0281296	1.101	0.945451	-0.281714	0.484309	-0.0897411	-0.258204	0.149593	0.226852	0.219897	0	-0.22166	0.0971746	0.116678	0.0860451	0.293232	-0.0525187	0	-0.11217	-0.0583363	-0.177915	-0.25611	-0.0686775	-0.429514	0.523495	2.09	0.26473	-0.20742	0.0266711	0.955344	2.09
1.08	-0.010465	0.0493509	0.0317694	1.1135	0.943243	-0.281236	0.479681	-0.085671	-0.255484	0.130581	0.233514	0.221688	0	-0.236712	0.0952435	0.115705	0.0891608	0.299701	-0.0443961	0	-0.113702	-0.0592323	-0.181125	-0.257821	-0.0687004	-0.432894	0.52006	2.09	0.26708	-0.208762	0.0282531	0.967376	2.09
1.09	-0.00865376	0.0493962	0.0349826	1.12621	0.941112	-0.28069	0.47506	-0.0815307	-0.251345	0.118933	0.240487	0.221517	0	-0.250976	0.0926403	0.111808	0.0945163	0.306259	-0.031981	0	-0.115013	-0.0595353	-0.18418	-0.258921	-0.0691416	-0.435684	0.516157	2.09	0.267457	-0.209685	0.0286047	0.97851	2.09
1.1	-0.00677371	0.0485294	0.0377122	1.13911	0.939072	-0.279994	0.470235	-0.0762714	-0.242466	0.113464	0.245402	0.214133	0	-0.260105	0.0870947	0.077229	0.109913	0.329871	0.0294418	0	-0.115876	-0.0587195	-0.186603	-0.259571	-0.0693476	-0.440664	0.512468	2.09	0.266156	-0.210065	0.0279577	0.988269	2.09
1.11	-0.0050953	0.0474611	0.0397668	1.15227	0.937144	-0.279283	0.466585	-0.0717626	-0.238608	0.116271	0.251594	0.21521	0	-0.272545	0.0832346	0.0753687	0.118526	0.330559	0.0368265	0	-0.115792	-0.0574603	-0.188983	-0.259544	-0.070999	-0.440595	0.50716	2.09	0.262393	-0.209712	0.0252539	0.996875	2.09
1.12	-0.00321839	0.045175	0.0410926	1.16563	0.935394	-0.27843	0.462685	-0.0660095	-0.233929	0.124233	0.254345	0.214564	0	-0.282957	0.0774791	0.0653356	0.131244	0.333205	0.0560994	0	-0.115355	-0.0546718	-0.1909	-0.258744	-0.0727904	-0.441572	0.501672	2.09	0.256574	-0.208366	0.0201108	1.00415	2.09
1.13	-0.00198299	0.0411808	0.0416388	1.17916	0.933783	-0.27737	0.459218	-0.0580794	-0.226048	0.135515	0.250256	0.207309	0	-0.288173	0.0679809	0.0335429	0.152267	0.344799	0.108322	0	-0.113579	-0.049979	-0.191995	-0.257433	-0.0748629	-0.442265	0.495891	2.09	0.249015	-0.205937	0.0129935	1.0092	2.09
1.14	-0.00107272	0.0357253	0.0411894	1.19289	0.932373	-0.276143	0.455917	-0.0482469	-0.216123	0.149146	0.238827	0.194968	0	-0.29231	0.0570419	0.00703078	0.174332	0.348976	0.15004	0	-0.110807	-0.0435508	-0.191957	-0.255753	-0.077212	-0.443067	0.490147	2.09	0.239972	-0.20222	0.004108	1.0116	2.09
1.15	-0.00050935	0.0286496	0.0397385	1.2068	0.931188	-0.274727	0.452815	-0.0362866	-0.204406	0.164105	0.219924	0.17737	0	-0.294235	0.043871	-0.0209475	0.199532	0.349079	0.191792	0	-0.107079	-0.0352739	-0.190856	-0.253668	-0.0798703	-0.443503	0.484409	2.09	0.229491	-0.197311	-0.00652183	1.01136	2.09
1.16	-0.000215015	0.0202682	0.0372941	1.22089	0.930258	-0.273142	0.450123	-0.0227977	-0.192746	0.180398	0.195939	0.157773	0	-0.294016	0.0288876	-0.0488549	0.227864	0.343929	0.231099	0	-0.102558	-0.025494	-0.188653	-0.251301	-0.0827575	-0.443626	0.478898	2.09	0.21776	-0.191436	-0.018285	1.0084	2.09
1.17	-3.59648e-05	0.0113255	0.0339358	1.23516	0.929611	-0.271443	0.448161	-0.00914012	-0.184152	0.198925	0.171483	0.142079	0	-0.291983	0.0134212	-0.0726431	0.25882	0.33151	0.261784	0	-0.0975403	-0.0149874	-0.185406	-0.248772	-0.0857517	-0.443566	0.473887	2.09	0.204973	-0.184926	-0.0304425	1.00281	2.09
1.18	7.35271e-05	0.00219051	0.0297717	1.24956	0.929253	-0.269642	0.446802	0.00438554	-0.177122	0.219546	0.149346	0.129021	0	-0.287179	-0.00292648	-0.0967597	0.294174	0.313794	0.290572	0	-0.0922206	-0.00419591	-0.181191	-0.246162	-0.0887203	-0.443265	0.469633	2.09	0.191279	-0.178139	-0.0424325	0.994838	2.09
1.19	0.000317571	-0.00633711	0.0249618	1.26406	0.929199	-0.267793	0.445884	0.0166808	-0.172507	0.2427	0.13347	0.121199	0	-0.279779	-0.0187702	-0.11714	0.333505	0.289014	0.311037	0	-0.0870142	0.00603292	-0.176086	-0.243527	-0.0914651	-0.442999	0.466509	2.09	0.176945	-0.171317	-0.0538464	0.984649	2.09
1.2	0.000624127	-0.014247	0.0196605	1.27857	0.929421	-0.26588	0.444959	0.0281041	-0.168353	0.267434	0.124787	0.115862	0	-0.268743	-0.0350768	-0.13743	0.378365	0.258751	0.328341	0	-0.0820019	0.0156088	-0.170148	-0.240868	-0.0938786	-0.442577	0.464725	2.09	0.162167	-0.16458	-0.0647215	0.972496	2.09
1.21	0.000912886	-0.0217598	0.0139682	1.29303	0.929879	-0.263878	0.443504	0.0391912	-0.163938	0.292534	0.123399	0.111869	0	-0.253519	-0.0527862	-0.15863	0.429386	0.223376	0.343476	0	-0.0772426	0.0247417	-0.162953	-0.238464	-0.0954818	-0.444047	0.465193	2.09	0.147523	-0.157895	-0.0746704	0.958138	2.09
1.22	0.00162224	-0.0281995	0.00828436	1.30735	0.930615	-0.261862	0.440328	0.0492279	-0.159229	0.316594	0.128763	0.109297	0	-0.235114	-0.068882	-0.171156	0.484148	0.178612	0.340578	0	-0.0734224	0.0326131	-0.155619	-0.23545	-0.097252	-0.441564	0.466006	2.09	0.13276	-0.151358	-0.0850786	0.942331	2.09
1.23	0.00189194	-0.0348301	0.0025546	1.32148	0.93149	-0.259747	0.435784	0.0598409	-0.154184	0.338063	0.13859	0.107126	0	-0.211809	-0.0871605	-0.183574	0.544545	0.128015	0.332351	0	-0.069604	0.0405699	-0.147111	-0.232605	-0.0983534	-0.439995	0.468894	2.09	0.118662	-0.144767	-0.095058	0.924313	2.09
1.24	0.0018036	-0.0417731	-0.00299369	1.33535	0.93248	-0.257568	0.429289	0.0711382	-0.148956	0.355679	0.150951	0.105157	0	-0.184316	-0.107028	-0.192964	0.608685	0.0706923	0.314309	0	-0.0659793	0.0487366	-0.137733	-0.22973	-0.0991433	-0.437799	0.473356	2.09	0.105376	-0.138144	-0.104886	0.904231	2.09
1.25	0.00108162	-0.0489843	-0.00816165	1.34895	0.933527	-0.255385	0.421059	0.0828852	-0.143994	0.368961	0.164371	0.103675	0	-0.152926	-0.127729	-0.197849	0.674718	0.00712692	0.284584	0	-0.062279	0.0571048	-0.127734	-0.22681	-0.0998372	-0.434564	0.479251	2.09	0.0930099	-0.131513	-0.114611	0.88212	2.09
1.26	0.000188204	-0.0563601	-0.0127823	1.36227	0.934633	-0.253256	0.410592	0.0948128	-0.139503	0.377679	0.177932	0.102787	0	-0.119067	-0.148831	-0.198542	0.740489	-0.0592496	0.246583	0	-0.0590867	0.0655853	-0.117373	-0.223659	-0.100624	-0.430037	0.486454	2.09	0.0816691	-0.124997	-0.124212	0.858264	2.09
1.27	-0.000935524	-0.0634666	-0.0167024	1.37532	0.935768	-0.251258	0.398338	0.106171	-0.135917	0.382394	0.191431	0.103089	0	-0.0833311	-0.169084	-0.194618	0.804273	-0.123787	0.202414	0	-0.0563182	0.0737634	-0.106948	-0.220203	-0.101679	-0.424117	0.494912	2.09	0.0713592	-0.118713	-0.133584	0.832776	2.09
